<svg version="1.1" id="Layer_1" xmlns="http://www.w3.org/2000/svg" xmlns:xlink="http://www.w3.org/1999/xlink" x="0px" y="0px"
	 width="100%" viewBox="0 0 576 592" enable-background="new 0 0 576 592" xml:space="preserve">
<path fill="#000000" opacity="1.000000" stroke="none" 
	d="
M75.869453,114.007935 
	C87.774414,90.903587 106.232689,77.879265 131.737442,74.544350 
	C168.905853,69.684341 202.405670,94.160812 209.929688,129.965103 
	C213.792572,148.347214 210.947067,165.981979 201.072388,182.197952 
	C199.195297,185.280487 199.201202,187.104126 202.531570,189.518112 
	C210.975800,195.638824 219.054947,202.274094 227.127899,208.889297 
	C229.482086,210.818390 231.184204,210.697113 233.055038,208.551865 
	C233.491928,208.050888 233.995453,207.607773 234.471298,207.141052 
	C252.534515,189.423721 270.526398,171.632492 288.726929,154.057327 
	C292.049561,150.848831 295.747070,148.015182 299.045776,144.721313 
	C301.459534,142.311050 301.627350,140.381851 300.154755,137.306046 
	C293.822266,124.079201 296.267944,108.964241 305.849518,99.994743 
	C323.527802,83.445709 353.053223,92.504814 357.636230,114.411949 
	C358.903442,120.469383 359.058685,126.640831 357.202667,132.645325 
	C356.258057,135.701172 356.790497,136.962189 360.236053,137.760513 
	C392.496094,145.234940 424.731659,152.821075 456.897369,160.689392 
	C461.397522,161.790237 463.287720,160.910309 465.094269,156.728973 
	C477.297119,128.484940 515.454102,125.046524 534.531433,145.267731 
	C545.463989,156.855865 548.621338,171.032135 544.422791,186.330994 
	C539.882568,202.874893 528.850220,213.051010 511.903381,216.344757 
	C501.841736,218.300308 501.548035,218.073303 499.684204,228.175919 
	C494.755920,254.889008 490.088440,281.650146 485.287628,308.386871 
	C482.536285,323.709473 479.867859,339.049561 476.847870,354.319611 
	C476.072876,358.238220 476.631165,360.440247 480.488770,362.179382 
	C508.959808,375.015167 512.086365,412.815887 490.601257,431.699371 
	C483.006012,438.374908 474.066162,441.358246 463.644867,441.531555 
	C446.891663,441.810181 435.078094,434.421814 426.459412,420.749420 
	C423.741699,416.438110 422.820068,411.475586 421.805420,406.629395 
	C421.272430,404.083618 420.195862,403.539093 417.856659,403.307190 
	C398.918915,401.429535 380.020782,399.097382 361.057892,397.549591 
	C351.171265,396.742645 341.343170,394.979797 330.707886,395.225983 
	C330.707886,408.433685 330.707886,421.629181 330.707886,435.201660 
	C339.750488,436.736786 348.063660,440.575867 355.033173,447.584229 
	C367.941315,460.564240 370.044250,484.692749 360.337585,500.250946 
	C346.650726,522.188721 314.597870,525.474731 295.780579,509.136169 
	C279.151184,494.697388 277.117126,464.567902 292.660889,449.138733 
	C296.596771,445.231903 297.478760,442.566528 294.435944,437.440948 
	C286.207794,423.580627 278.778137,409.246460 271.023102,395.104980 
	C268.920471,391.270782 266.636780,387.907043 261.544708,387.503326 
	C250.484940,386.626526 239.447266,385.459747 228.408279,384.335724 
	C216.391479,383.112091 204.389435,381.742218 192.369843,380.547882 
	C180.836868,379.401855 169.285858,378.438293 157.749741,377.322571 
	C145.916489,376.178070 134.091675,374.946320 122.057999,373.732025 
	C118.504662,384.190186 112.714340,392.503143 103.276901,398.280548 
	C80.726158,412.085541 47.576542,401.460449 40.180855,373.844330 
	C33.698788,349.639740 47.932320,324.877197 72.320435,320.295807 
	C83.791145,318.141022 94.895988,319.650848 104.735260,326.432465 
	C107.664467,328.451416 109.416908,328.209351 111.950905,325.760468 
	C126.073006,312.112762 140.041580,298.301147 154.240067,284.742706 
	C165.436279,274.051178 176.280930,263.019989 187.421158,252.284317 
	C189.688400,250.099411 189.710770,248.341110 188.244736,245.781830 
	C182.544189,235.830215 176.815521,225.885422 171.499023,215.727829 
	C169.472992,211.856903 167.413147,211.038055 163.291946,212.392960 
	C140.158997,219.998245 118.344002,216.861252 98.546715,202.776245 
	C80.143082,189.682770 70.316147,171.653595 69.610023,148.811157 
	C69.240402,136.854141 70.325005,125.244965 75.869453,114.007935 
M439.708862,211.242096 
	C425.624542,217.583435 411.570190,223.992371 397.448853,230.250183 
	C376.505005,239.531311 355.516052,248.710632 334.539276,257.917358 
	C332.284485,258.906982 331.318756,260.540680 331.337341,263.011597 
	C331.401245,271.505585 331.424866,280.001068 331.324066,288.494354 
	C331.294220,291.010345 332.691925,292.537537 334.360748,293.923096 
	C337.802948,296.781006 341.318481,299.551788 344.833649,302.320526 
	C372.821075,324.365112 400.832031,346.379883 428.773956,368.481903 
	C430.838745,370.115173 432.333160,371.078735 434.767548,369.041260 
	C442.669556,362.427673 451.821594,358.891357 462.172272,358.664124 
	C464.375885,358.615753 465.291901,357.696259 465.687164,355.427460 
	C467.874298,342.873077 470.318237,330.363708 472.557678,317.818115 
	C478.374603,285.231232 484.048981,252.618484 490.039520,220.063736 
	C490.631195,216.848465 489.937958,215.377731 487.267822,214.256683 
	C480.698914,211.498749 475.114685,207.348694 470.581635,201.897354 
	C468.446411,199.329559 466.478790,199.423676 463.653168,200.732803 
	C455.974091,204.290543 448.144623,207.523773 439.708862,211.242096 
M444.573120,197.065155 
	C447.761383,195.646790 450.957153,194.244995 454.136414,192.806763 
	C461.911774,189.289429 461.905823,189.282730 461.659302,180.914154 
	C461.629883,179.915405 461.510223,178.890701 461.676392,177.919785 
	C462.362976,173.908401 460.245483,172.309479 456.685059,171.481995 
	C423.785309,163.835648 390.890137,156.168488 358.022980,148.383514 
	C352.634705,147.107224 347.513580,145.574631 342.711853,150.009766 
	C341.456116,151.169617 339.431000,151.846878 337.678497,152.050247 
	C333.105927,152.580917 332.253540,155.215958 332.274750,159.314011 
	C332.406677,184.802582 332.246704,210.292892 332.442383,235.780640 
	C332.468567,239.197342 330.508118,242.510483 331.958130,246.210495 
	C332.729340,246.053986 333.395325,246.036148 333.959473,245.787384 
	C354.783905,236.604324 375.591400,227.382828 396.417633,218.203873 
	C412.227509,211.235809 428.059570,204.318161 444.573120,197.065155 
M319.601868,379.793549 
	C320.114044,367.852692 319.558777,355.918579 320.412964,343.939911 
	C321.416748,329.862762 320.605194,315.659485 320.703400,301.511719 
	C320.722656,298.736023 319.708679,296.632355 317.661682,295.016052 
	C310.502808,289.363495 303.237335,283.845032 296.122314,278.138489 
	C293.954163,276.399536 292.111237,276.612122 289.747498,277.672058 
	C275.821106,283.916870 261.744141,289.833313 247.912140,296.277313 
	C243.067551,298.534332 237.464401,299.573639 233.287872,303.953217 
	C237.696518,311.899933 242.041260,319.708191 246.364166,327.528473 
	C255.198593,343.510193 264.025055,359.496246 272.843292,375.486877 
	C273.762604,377.153961 274.807281,378.425201 276.958344,378.636536 
	C289.787689,379.896942 302.605743,381.271912 315.432312,382.561584 
	C317.097168,382.728973 318.855103,382.764038 319.601868,379.793549 
M321.653107,233.497696 
	C321.653717,209.690659 321.646973,185.883636 321.658905,162.076599 
	C321.662994,153.901917 321.628357,154.023651 314.171265,150.595734 
	C311.520264,149.377106 309.786224,149.462677 307.612885,151.615005 
	C297.221313,161.906067 286.690918,172.058105 276.136719,182.183319 
	C266.062592,191.847931 256.909973,202.455780 246.057968,211.333847 
	C243.703033,213.260437 241.141617,215.249008 239.867325,218.297165 
	C240.542648,219.094101 240.989868,219.834381 241.624313,220.339447 
	C258.475922,233.754761 275.325409,247.173019 292.249298,260.496704 
	C293.849121,261.756165 295.603485,263.047974 298.149445,261.827942 
	C303.833344,259.104187 309.576477,256.450806 315.471039,254.236099 
	C320.477478,252.355072 322.360413,249.208511 321.721558,243.977173 
	C321.340942,240.860535 321.652344,237.659363 321.653107,233.497696 
M206.749985,371.621765 
	C224.186127,373.265259 241.622284,374.908752 260.522003,376.690216 
	C247.258774,352.690338 234.844421,330.226532 222.511063,307.909271 
	C221.201294,308.263489 220.697662,308.332184 220.251297,308.530060 
	C190.026779,321.929138 159.861313,335.464111 129.531357,348.619873 
	C124.650116,350.737152 121.854469,352.486450 123.144714,358.548889 
	C123.941101,362.290894 125.089638,363.646576 128.796539,363.729828 
	C133.756241,363.841217 138.711700,364.401794 143.655655,364.901398 
	C155.672241,366.115601 167.683075,367.387756 179.692474,368.671722 
	C188.409683,369.603699 197.120911,370.591827 206.749985,371.621765 
M417.264618,392.656555 
	C424.401184,393.269043 422.516266,386.671478 424.593719,383.313446 
	C426.516541,380.205414 423.515656,378.958679 421.649200,377.476715 
	C396.459259,357.476135 371.283722,337.457214 346.030731,317.536407 
	C341.459320,313.930237 337.240540,309.757080 331.544830,307.021057 
	C330.879944,319.140625 331.439362,330.760834 330.548920,342.390289 
	C329.623199,354.481171 330.492554,366.701080 330.268341,378.858887 
	C330.195679,382.797516 331.938385,384.273987 335.409821,384.616364 
	C349.076874,385.964325 362.745270,387.298889 376.411591,388.654053 
	C389.746033,389.976288 403.078583,391.317566 417.264618,392.656555 
M223.230484,286.276703 
	C227.636017,292.949066 227.680893,293.051331 235.025803,289.827637 
	C245.202271,285.361267 255.312012,280.742249 265.432709,276.149780 
	C270.974152,273.635284 276.807404,271.708954 282.935486,267.727295 
	C265.297333,253.757584 248.153610,240.179474 230.928650,226.537018 
	C223.147934,233.923431 215.952972,241.041077 208.420761,247.781906 
	C204.705231,251.107040 205.360565,254.054840 207.489395,257.777008 
	C212.756500,266.986328 217.786377,276.331329 223.230484,286.276703 
M175.630737,316.072357 
	C187.016205,311.046173 198.401215,306.018951 209.787308,300.994202 
	C216.621323,297.978271 216.783249,297.387604 213.265686,291.286682 
	C210.529663,286.541260 208.111771,281.609619 205.304916,276.908569 
	C202.270126,271.825806 200.126862,266.190552 196.044800,261.388794 
	C189.335632,265.291382 184.662720,271.295074 179.337250,276.346741 
	C159.201889,295.446808 139.613831,315.124237 119.854546,334.619598 
	C118.514679,335.941559 116.350235,337.328979 118.098076,339.614197 
	C119.659637,341.655853 121.438774,340.013977 123.015808,339.321259 
	C140.339935,331.711151 157.649551,324.068024 175.630737,316.072357 
M281.860657,390.760742 
	C282.908691,393.011475 283.826782,395.334229 285.026917,397.500732 
	C290.806732,407.934357 296.829681,418.236816 302.439484,428.760040 
	C307.052917,437.414276 306.829681,437.410370 316.307159,435.711761 
	C318.861694,435.253937 319.657654,434.118988 319.649750,431.771759 
	C319.610565,420.142029 319.610840,408.512085 319.625183,396.882233 
	C319.627808,394.747223 318.956879,393.551636 316.538544,393.324463 
	C305.048859,392.245178 293.619141,390.512390 281.860657,390.760742 
M210.568619,230.076141 
	C214.124969,226.453659 217.681335,222.831177 221.387390,219.056213 
	C212.990234,212.347336 204.986069,206.164597 197.238739,199.675201 
	C193.232620,196.319565 189.837402,194.538086 186.087357,199.908478 
	C185.104507,201.315994 183.285553,202.254059 181.684509,203.089478 
	C179.104630,204.435638 179.072769,206.142868 180.337158,208.418243 
	C184.688217,216.248230 188.806122,224.214493 193.380081,231.910583 
	C195.174545,234.929947 195.972473,238.688843 199.932358,241.765640 
	C203.391159,237.954941 206.738525,234.266983 210.568619,230.076141 
M320.655396,275.321716 
	C320.386749,271.948822 321.313599,268.462341 319.710876,264.466217 
	C315.338989,266.848663 310.710663,267.889404 306.433746,270.924774 
	C310.628906,275.554993 315.288300,278.703308 320.655426,282.494659 
	C320.655426,279.773224 320.655426,277.992035 320.655396,275.321716 
z"/>
</svg>